<svg width="24" height="24" viewBox="0 0 24 24" fill="none" xmlns="http://www.w3.org/2000/svg">
<g id="pepicons-pop:dollar">
<g id="Group">
<path id="Vector" fill-rule="evenodd" clip-rule="evenodd" d="M9.47621 6.84004C8.81501 7.33564 8.51621 7.92964 8.51621 8.48404C8.51621 9.03964 8.81501 9.63364 9.47621 10.1304C10.1386 10.6272 11.1082 10.9704 12.2302 10.9704C12.5485 10.9704 12.8537 11.0969 13.0787 11.3219C13.3038 11.547 13.4302 11.8522 13.4302 12.1704C13.4302 12.4887 13.3038 12.7939 13.0787 13.019C12.8537 13.244 12.5485 13.3704 12.2302 13.3704C10.639 13.3704 9.15221 12.888 8.03621 12.0504C6.92021 11.2128 6.11621 9.96484 6.11621 8.48524C6.11621 7.00444 6.92021 5.75644 8.03621 4.91884C9.15221 4.08244 10.6402 3.60004 12.2302 3.60004C14.6938 3.60004 17.023 4.77964 17.9494 6.74404C18.0166 6.88665 18.0551 7.04111 18.0626 7.19859C18.0701 7.35607 18.0465 7.51349 17.9932 7.66186C17.9399 7.81023 17.8579 7.94664 17.7518 8.06331C17.6458 8.17998 17.5178 8.27463 17.3752 8.34184C17.2326 8.40905 17.0781 8.44751 16.9207 8.45503C16.7632 8.46255 16.6058 8.43897 16.4574 8.38565C16.309 8.33233 16.1726 8.25031 16.0559 8.14427C15.9393 8.03823 15.8446 7.91025 15.7774 7.76764C15.3574 6.87124 14.047 6.00004 12.2314 6.00004C11.1094 6.00004 10.1386 6.34324 9.47621 6.84004Z" fill="white"/>
<path id="Vector_2" fill-rule="evenodd" clip-rule="evenodd" d="M14.5883 17.4996C15.2495 17.004 15.5471 16.41 15.5471 15.8556C15.5471 15.3 15.2495 14.7048 14.5871 14.2092C13.9259 13.7124 12.9551 13.3692 11.8343 13.3692C11.516 13.3692 11.2108 13.2428 10.9858 13.0177C10.7607 12.7927 10.6343 12.4875 10.6343 12.1692C10.6343 11.851 10.7607 11.5457 10.9858 11.3207C11.2108 11.0956 11.516 10.9692 11.8343 10.9692C13.4255 10.9692 14.9123 11.4516 16.0283 12.2892C17.1443 13.1268 17.9471 14.3748 17.9471 15.8544C17.9471 17.334 17.1443 18.5832 16.0271 19.4196C14.9111 20.2572 13.4255 20.7396 11.8343 20.7396C9.3707 20.7396 7.0403 19.56 6.1151 17.5944C5.97936 17.3065 5.96354 16.9765 6.07111 16.677C6.17868 16.3775 6.40084 16.133 6.6887 15.9972C6.97657 15.8615 7.30657 15.8457 7.6061 15.9532C7.90563 16.0608 8.15016 16.2829 8.2859 16.5708C8.7083 17.4684 10.0187 18.3396 11.8343 18.3396C12.9563 18.3396 13.9259 17.9964 14.5883 17.4996ZM11.9999 1.20001C12.3182 1.20001 12.6234 1.32644 12.8484 1.55148C13.0735 1.77653 13.1999 2.08175 13.1999 2.40001V3.60001C13.1999 3.91827 13.0735 4.2235 12.8484 4.44854C12.6234 4.67358 12.3182 4.80001 11.9999 4.80001C11.6816 4.80001 11.3764 4.67358 11.1514 4.44854C10.9263 4.2235 10.7999 3.91827 10.7999 3.60001V2.40001C10.7999 2.08175 10.9263 1.77653 11.1514 1.55148C11.3764 1.32644 11.6816 1.20001 11.9999 1.20001Z" fill="white"/>
<path id="Vector_3" fill-rule="evenodd" clip-rule="evenodd" d="M11.9998 19.2C12.3181 19.2 12.6233 19.3264 12.8483 19.5515C13.0734 19.7765 13.1998 20.0818 13.1998 20.4V21.6C13.1998 21.9183 13.0734 22.2235 12.8483 22.4485C12.6233 22.6736 12.3181 22.8 11.9998 22.8C11.6815 22.8 11.3763 22.6736 11.1513 22.4485C10.9262 22.2235 10.7998 21.9183 10.7998 21.6V20.4C10.7998 20.0818 10.9262 19.7765 11.1513 19.5515C11.3763 19.3264 11.6815 19.2 11.9998 19.2Z" fill="white"/>
</g>
</g>
</svg>
